/* XPM */
static char *_6c6b58798414faddccaf7cc752f18f8[] = {
/* columns rows colors chars-per-pixel */
"32 32 61 1 ",
"  c #7A779B",
". c #79729F",
"X c #79749D",
"o c #7A759C",
"O c #7A779C",
"+ c #7A7A99",
"@ c #8146c9",
"# c #7A799A",
"$ c #7A789B",
"% c #7A7C98",
"& c #7A7D98",
"* c #7A7C99",
"= c #785FAB",
"- c #8146c9",
"; c #785AAE",
": c #785BAE",
"> c #785DAC",
", c #774FB5",
"< c #774DB6",
"1 c #774CB7",
"2 c #784FB5",
"3 c #7747BA",
"4 c #7746BB",
"5 c #7741BE",
"6 c #7740BF",
"7 c #7741BF",
"8 c #7742BE",
"9 c #7745BC",
"0 c #7749B9",
"q c #774AB8",
"w c #774AB9",
"e c #7748BA",
"r c #7853B3",
"t c #7857B0",
"y c #7856B1",
"u c #7854B2",
"i c #7855B2",
"p c #7851B4",
"a c #7850B5",
"s c #7965A7",
"d c #7966A7",
"f c #796FA0",
"g c #796EA1",
"h c #796DA2",
"j c #796CA3",
"k c #7968A5",
"l c #8146c9",
"z c #796AA4",
"x c #7963A8",
"c c #7860AA",
"v c #7964A8",
"b c #7637C5",
"n c #7635C7",
"m c #7636C6",
"M c #763BC2",
"N c #763AC3",
"B c #773DC1",
"V c #773EC1",
"C c #763CC2",
"Z c #7638C4",
"A c None",
/* pixels */
"AAAAAAAAAAAAAAAAAAAAAAAAAAAAAAAA",
"AAAAAAAAAAAAAAAAAAAAAAAAAAAAAAAA",
"AAAAAAAAAAAAAAAAAAAAAAAAAAAAAAAA",
"AAAAAAAAAAAAAAAAAAAAAAAAAAAAAAAA",
"AAAAAAAAAAAAAmmmmmmmAAAAAAAAAAAA",
"AAAAAAAAAAmmmmAAAAmmmmAAAAAAAAAA",
"AAAAAAAAAmmAAAAAAAAAAmmAAAAAAAAA",
"AAAAAAAmmAAAAAAAAAAAAAAmmAAAAAAA",
"AAAAAAAmAAAAAAAAAAAAAAAAmmAAAAAA",
"AAAAAAmAAAAAAAAAAAAAAAAAAmAAAAAA",
"AAAAAmmAAAAAAAAAAAAdcAAAAmmAAAAA",
"AAAAAmAAAAAAAAAAAAAc:AAAAAmAAAAA",
"AAAAmmAAAAAAA$oAAAA:iaAAAAmmAAAA",
"AAAAmAAAAAAAAo.gAA:i,0AAAAAmAAAA",
"AAAAmAAAAAAAA.glAAua09AAAAAmAAAA",
"AAAmnAAAAAAAAgdvAA21A6CAAAAmAAAA",
"AAAvjA@@@@oAglA>AA03ACZmmmAnnAAA",
"AAA&&AA@@@oAldAtuA3AAAZAAAAAiAAA",
"AAAA@AAAAAfzvAAa2A6AAAAAAAA&&AAA",
"AAAA@AAAAAld=AAA38CAAAAAAAA@AAAA",
"AAAA@AAAAAvc:AAA6CZAAAAAAAA@AAAA",
"AAAA@@AAAActAAAAVMZAAAAAAA@@AAAA",
"AAAAA@AAAAAiAAAAMmmAAAAAAA@AAAAA",
"AAAAA&&AAAAAAAAAAmAAAAAAA@@AAAAA",
"AAAAAA&@AAAAAAAAAAAAAAAA@@AAAAAA",
"AAAAAAA@@AAAAAAAAAAAAAA@@AAAAAAA",
"AAAAAAAA@@AAAAAAAAAAAA@@AAAAAAAA",
"AAAAAAAAA@@@AAAAAAAA@@@AAAAAAAAA",
"AAAAAAAAAAA@@@@@@@@@@AAAAAAAAAAA",
"AAAAAAAAAAAAAAAA@AAAAAAAAAAAAAAA",
"AAAAAAAAAAAAAAAAAAAAAAAAAAAAAAAA",
"AAAAAAAAAAAAAAAAAAAAAAAAAAAAAAAA"
};
