/* XPM */
static char *_464117032854767fa0f6f51c9760d8a[] = {
/* columns rows colors chars-per-pixel */
"16 16 22 1 ",
"  c #79729E",
". c #7A739E",
"X c #8146c9",
"o c #7A799A",
"O c #785FAB",
"+ c #8146c9",
"@ c #785DAD",
"# c #7747BA",
"$ c #7747BB",
"% c #7745BC",
"& c #7851B4",
"* c #7850B5",
"= c #7969A4",
"- c #7862A9",
"; c #7962A9",
": c #7970A0",
"> c #7637C5",
", c #7636C6",
"< c #773DC1",
"1 c #773FC0",
"2 c #7638C5",
"3 c None",
/* pixels */
"3333333333333333",
"3333333333333333",
"333333,,,,333333",
"3333,333333,3333",
"333,33333333,333",
"333333333-333333",
"33,3333 3+&33,33",
"333333:=3&%33333",
"33.3o3=@3$3,3133",
"33333=-3$3333333",
"33o33-33<3333X33",
"3333333323333333",
"333X33333333X333",
"3333X333333X3333",
"3333333XX3333333",
"3333333333333333"
};
