/* XPM */
static char *_5f28b4b043b4720840e89f3424d896d[] = {
/* columns rows colors chars-per-pixel */
"64 64 91 1 ",
"  c #7A779B",
". c #79719F",
"X c #79729E",
"o c #79739E",
"O c #79729F",
"+ c #79749D",
"@ c #7A759C",
"# c #7A769C",
"$ c #79749E",
"% c #7A7A99",
"& c #8146c9",
"* c #7A789A",
"= c #7A799A",
"- c #7A789B",
"; c #7A7C98",
": c #7A7D98",
"> c #7A7C99",
", c #785FAB",
"< c #785BAD",
"1 c #7858AF",
"2 c #785AAE",
"3 c #785BAE",
"4 c #785DAC",
"5 c #785CAD",
"6 c #785EAC",
"7 c #774FB5",
"8 c #774CB7",
"9 c #774DB7",
"0 c #774EB6",
"q c #7747BA",
"w c #7746BB",
"e c #7747BB",
"r c #7743BD",
"t c #7741BE",
"y c #7740BF",
"u c #7742BE",
"i c #7744BC",
"p c #7745BC",
"a c #7744BD",
"s c #774BB8",
"d c #774AB9",
"f c #7748BA",
"g c #7749BA",
"h c #7852B3",
"j c #7853B3",
"k c #7855B1",
"l c #7857B0",
"z c #7856B1",
"x c #7855B2",
"c c #7850B4",
"v c #7850B5",
"b c #7852B4",
"n c #7858B0",
"m c #7967A5",
"M c #7964A7",
"N c #7965A7",
"B c #7966A6",
"V c #7967A6",
"C c #7966A7",
"Z c #796BA3",
"A c #796FA0",
"S c #796EA1",
"D c #796FA1",
"F c #796DA2",
"G c #796CA3",
"H c #7969A4",
"J c #7968A5",
"K c #796AA4",
"L c #7861A9",
"P c #7963A8",
"I c #7862A9",
"U c #7962A9",
"Y c #7963A9",
"T c #7860AA",
"R c #7861AA",
"E c #7860AB",
"W c #7964A8",
"Q c #7970A0",
"! c #7637C5",
"~ c #7635C6",
"^ c #7634C7",
"/ c #7635C7",
"( c #7636C6",
") c #763BC2",
"_ c #763AC3",
"` c #773DC1",
"' c #773FC0",
"] c #773EC1",
"[ c #763CC2",
"{ c #7638C4",
"} c None",
/* pixels */
"}}}}}}}}}}}}}}}}}}}}}}}}}}}}}}}}}}}}}}}}}}}}}}}}}}}}}}}}}}}}}}}}",
"}}}}}}}}}}}}}}}}}}}}}}}}}}}}}}}}}}}}}}}}}}}}}}}}}}}}}}}}}}}}}}}}",
"}}}}}}}}}}}}}}}}}}}}}}}}}}}}}}}}}}}}}}}}}}}}}}}}}}}}}}}}}}}}}}}}",
"}}}}}}}}}}}}}}}}}}}}}}}}}}}}}}}}}}}}}}}}}}}}}}}}}}}}}}}}}}}}}}}}",
"}}}}}}}}}}}}}}}}}}}}}}}}}}}}}}}}}}}}}}}}}}}}}}}}}}}}}}}}}}}}}}}}",
"}}}}}}}}}}}}}}}}}}}}}}}}}}}}}}}}}}}}}}}}}}}}}}}}}}}}}}}}}}}}}}}}",
"}}}}}}}}}}}}}}}}}}}}}}}}}}}}}}}}}}}}}}}}}}}}}}}}}}}}}}}}}}}}}}}}",
"}}}}}}}}}}}}}}}}}}}}}}}}}}}}}}}}}}}}}}}}}}}}}}}}}}}}}}}}}}}}}}}}",
"}}}}}}}}}}}}}}}}}}}}}}}}}}}((((((((((}}}}}}}}}}}}}}}}}}}}}}}}}}}",
"}}}}}}}}}}}}}}}}}}}}}}}}(((((((((((((((((}}}}}}}}}}}}}}}}}}}}}}}",
"}}}}}}}}}}}}}}}}}}}}}((((((((((((((((((((((}}}}}}}}}}}}}}}}}}}}}",
"}}}}}}}}}}}}}}}}}}}(((((((}}}}}}}}}}}}(((((((}}}}}}}}}}}}}}}}}}}",
"}}}}}}}}}}}}}}}}}}(((((}}}}}}}}}}}}}}}}}}(((((}}}}}}}}}}}}}}}}}}",
"}}}}}}}}}}}}}}}}}((((}}}}}}}}}}}}}}}}}}}}}}(((((}}}}}}}}}}}}}}}}",
"}}}}}}}}}}}}}}}(((((}}}}}}}}}}}}}}}}}}}}}}}}}((((}}}}}}}}}}}}}}}",
"}}}}}}}}}}}}}}((((}}}}}}}}}}}}}}}}}}}}}}}}}}}}((((}}}}}}}}}}}}}}",
"}}}}}}}}}}}}}}(((}}}}}}}}}}}}}}}}}}}}}}}}}}}}}}((((}}}}}}}}}}}}}",
"}}}}}}}}}}}}}(((}}}}}}}}}}}}}}}}}}}}}}}}}}}}}}}}((((}}}}}}}}}}}}",
"}}}}}}}}}}}}(((}}}}}}}}}}}}}}}}}}}}}}}}}}}}}}}}}}(((}}}}}}}}}}}}",
"}}}}}}}}}}}(((}}}}}}}}}}}}}}}}}}}}}}}}}K}}}}}}}}}}(((}}}}}}}}}}}",
"}}}}}}}}}}}(((}}}}}}}}}}}}}}}}}}}}}}}}KWW}}}}}}}}}}(((}}}}}}}}}}",
"}}}}}}}}}}(((}}}}}}}}}}}}}}}}}}}}}}}}}WPP3}}}}}}}}}(((}}}}}}}}}}",
"}}}}}}}}}}((}}}}}}}}}}}}}}}}}}}}}}}}}}P,,<}}}}}}}}}}(((}}}}}}}}}",
"}}}}}}}}}(((}}}}}}}}}}}}}}}}=}}}}}}}}PP5<xx}}}}}}}}}(((}}}}}}}}}",
"}}}}}}}}}((}}}}}}}}}}}}}}}}= #}}}}}}}P55nzb}}}}}}}}}}((}}}}}}}}}",
"}}}}}}}}(((}}}}}}}}}}}}}}}} ##.}}}}}}5nnzj9}}}}}}}}}}(((}}}}}}}}",
"}}}}}}}}(((}}}}}}}}}}}}}}} #..D}}}}}}3nzj99f}}}}}}}}}(((}}}}}}}}",
"}}}}}}}}((}}}}}}}}}}}}}}}}##.DD}}}}}}zzzb9ff}}}}}}}}}}((}}}}}}}}",
"}}}}}}}}((}}}}}}}}}}}}}}}}...DK}}}}}}xxc}ffp}}}}}}}}}}(((}}}}}}}",
"}}}}}}}(((}}}}}}}}}}}}}}}}.DDZKN}}}}}jc9}fpyy}}}}}}}}}(((}}}}}}}",
"}}}}}}((((}}}}}}}}}}}}}}}QQDKKWP}}}}x99}}py]]}}}}}}}}}(((}}}}}}}",
"}}}(((((((}}}}}}}}}}}}}}}QDD}NP,}}}}cbf}}}y]]}}}}}}}}}(((}}}}}}}",
"}}}}}}}}}}}}}}}}}}}}}}}}}DKK}}T5}}}}9sf}}}]]_((}}}}}}}}((}}}}}}}",
"}}}}>;>;>>>>>>=>=>== #}}}ZKK}}43n}}}9fe}}}__(_((((((((((((}}}}}}",
"}}}}}}}==>>==>=>>== #.}}ZKN}}}3zx}}}fpp}}}}_(((((((((((((}}}}}}}",
"}}}}}}}>=>}}}}}}}}= ..}}KNW}}}zzc}}}epy}}}}}}}}}}}}}}}}}}}}}}}}}",
"}}}}}}}>;;}}}}}}}}}#DD}}NWT}}}}bb9}}py}}}}}}}}}}}}}}}}>==>>=}}}}",
"}}}}}}}=>=}}}}}}}}}QDDZNNP}}}}}bss}yy'}}}}}}}}}}}}}}}}>=>}}}}}}}",
"}}}}}}}}>=}}}}}}}}}}DKKNTP}}}}}9ff}y]]}}}}}}}}}}}}}}}}>>>}}}}}}}",
"}}}}}}}}>>}}}}}}}}}}KKNT55}}}}}ffp}]]]}}}}}}}}}}}}}}}}=>}}}}}}}}",
"}}}}}}}}>=>}}}}}}}}}KWP55<}}}}}}pp'])_}}}}}}}}}}}}}}}}=>}}}}}}}}",
"}}}}}}}}>=>}}}}}}}}}WPP5<}}}}}}}yy]])_}}}}}}}}}}}}}}}>>>}}}}}}}}",
"}}}}}}}}}>>}}}}}}}}}}T53x}}}}}}}]])__(}}}}}}}}}}}}}}}==}}}}}}}}}",
"}}}}}}}}}>=>}}}}}}}}}53nx}}}}}}}]])((}}}}}}}}}}}}}}}>>>}}}}}}}}}",
"}}}}}}}}}}==}}}}}}}}}<xx}}}}}}}}})(_(}}}}}}}}}}}}}}}>=;}}}}}}}}}",
"}}}}}}}}}}>>>}}}}}}}}}}}}}}}}}}}}((((}}}}}}}}}}}}}}=>=}}}}}}}}}}",
"}}}}}}}}}}}>=>}}}}}}}}}}}}}}}}}}}_(((}}}}}}}}}}}}}}>>>}}}}}}}}}}",
"}}}}}}}}}}}>=>}}}}}}}}}}}}}}}}}}}}((}}}}}}}}}}}}}}=>=}}}}}}}}}}}",
"}}}}}}}}}}}}>>=}}}}}}}}}}}}}}}}}}}}}}}}}}}}}}}}}}=>>}}}}}}}}}}}}",
"}}}}}}}}}}}}}>>>}}}}}}}}}}}}}}}}}}}}}}}}}}}}}}}}>>>=}}}}}}}}}}}}",
"}}}}}}}}}}}}}}=>=}}}}}}}}}}}}}}}}}}}}}}}}}}}}}}=>>>}}}}}}}}}}}}}",
"}}}}}}}}}}}}}}=>>>}}}}}}}}}}}}}}}}}}}}}}}}}}}}>;==}}}}}}}}}}}}}}",
"}}}}}}}}}}}}}}}>>>==}}}}}}}}}}}}}}}}}}}}}}}}}>==>}}}}}}}}}}}}}}}",
"}}}}}}}}}}}}}}}}}=>>>}}}}}}}}}}}}}}}}}}}}}}>>=>>}}}}}}}}}}}}}}}}",
"}}}}}}}}}}}}}}}}}}>>>==}}}}}}}}}}}}}}}}}}>>=>>}}}}}}}}}}}}}}}}}}",
"}}}}}}}}}}}}}}}}}}}=>>>>>>}}}}}}}}}}}}}=>=>>=}}}}}}}}}}}}}}}}}}}",
"}}}}}}}}}}}}}}}}}}}}}>>=>>>==>>>>>>=>;>==>>}}}}}}}}}}}}}}}}}}}}}",
"}}}}}}}}}}}}}}}}}}}}}}}}==>>;>==>=>=>=>;>}}}}}}}}}}}}}}}}}}}}}}}",
"}}}}}}}}}}}}}}}}}}}}}}}}}}}>>=>>>=>>=}}}}}}}}}}}}}}}}}}}}}}}}}}}",
"}}}}}}}}}}}}}}}}}}}}}}}}}}}}}}}}}}}}}}}}}}}}}}}}}}}}}}}}}}}}}}}}",
"}}}}}}}}}}}}}}}}}}}}}}}}}}}}}}}}}}}}}}}}}}}}}}}}}}}}}}}}}}}}}}}}",
"}}}}}}}}}}}}}}}}}}}}}}}}}}}}}}}}}}}}}}}}}}}}}}}}}}}}}}}}}}}}}}}}",
"}}}}}}}}}}}}}}}}}}}}}}}}}}}}}}}}}}}}}}}}}}}}}}}}}}}}}}}}}}}}}}}}",
"}}}}}}}}}}}}}}}}}}}}}}}}}}}}}}}}}}}}}}}}}}}}}}}}}}}}}}}}}}}}}}}}"
};
